<svg xmlns="http://www.w3.org/2000/svg" version="1.1" xmlns:xlink="http://www.w3.org/1999/xlink" xmlns:svgjs="http://svgjs.dev/svgjs" width="1000" height="1000" viewBox="0 0 1000 1000"><rect width="1000" height="1000" fill="#ffffff"></rect><g transform="matrix(0.7,0,0,0.7,149.57577738155305,436.3007809672762)"><svg viewBox="0 0 396 72" data-background-color="#ffffff" preserveAspectRatio="xMidYMid meet" height="181" width="1000" xmlns="http://www.w3.org/2000/svg" xmlns:xlink="http://www.w3.org/1999/xlink"><g id="tight-bounds" transform="matrix(1,0,0,1,0.23998885028763084,0.1984512261729776)"><svg viewBox="0 0 395.5199999999999 71.60309754765403" height="71.60309754765403" width="395.5199999999999"><g><svg viewBox="0 0 395.52000000000004 71.60309754765404" height="71.60309754765403" width="395.5199999999999"><g><svg viewBox="0 0 395.52000000000004 71.60309754765404" height="71.60309754765404" width="395.52000000000004"><g id="textblocktransform"><svg viewBox="0 0 395.52000000000004 71.60309754765404" height="71.60309754765404" width="395.52000000000004" id="textblock"><g><svg viewBox="0 0 395.52000000000004 40.842674401740396" height="40.842674401740396" width="395.52000000000004"><g transform="matrix(1,0,0,1,0,0)"><svg width="395.52000000000004" viewBox="3.700000047683716 -35 344.72998046875 35.599998474121094" height="40.842674401740396" data-palette-color="#61777f"><g class="undefined-text-0" data-fill-palette-color="primary" id="text-0"><path d="M23-34.4Q26.2-34.4 28.7-32.93 31.2-31.45 32.6-28.88 34-26.3 34-23.1L34-23.1 34-22.45Q34-19.25 32.6-16.65 31.2-14.05 28.7-12.58 26.2-11.1 23-11.1L23-11.1 14.75-11.1 14.75 0 3.7 0 3.7-34.4 23-34.4ZM14.75-26.25L14.75-19.15 19.3-19.15Q21.05-19.15 21.93-20.05 22.8-20.95 22.8-22.5L22.8-22.5 22.8-22.9Q22.8-24.5 21.93-25.38 21.05-26.25 19.3-26.25L19.3-26.25 14.75-26.25ZM54.7-34.4Q72.75-34.4 72.75-17.2L72.75-17.2Q72.75 0 54.7 0L54.7 0 39.8 0 39.8-34.4 54.7-34.4ZM50.85-26.15L50.85-8.25 54.5-8.25Q61.45-8.25 61.45-15.7L61.45-15.7 61.45-18.7Q61.45-26.15 54.5-26.15L54.5-26.15 50.85-26.15ZM78.7 0L78.7-34.4 106.5-34.4 106.5-26.15 89.75-26.15 89.75-20.25 104.15-20.25 104.15-12.35 89.75-12.35 89.75 0 78.7 0ZM144.69-23.85Q144.69-20.7 142.99-18.15 141.29-15.6 138.04-14.4L138.04-14.4 145.69 0 133.29 0 127.19-12.55 123.09-12.55 123.09 0 112.04 0 112.04-34.4 133.09-34.4Q136.79-34.4 139.42-32.98 142.04-31.55 143.37-29.13 144.69-26.7 144.69-23.85L144.69-23.85ZM133.44-23.4Q133.44-24.75 132.54-25.65 131.64-26.55 130.34-26.55L130.34-26.55 123.09-26.55 123.09-20.2 130.34-20.2Q131.64-20.2 132.54-21.13 133.44-22.05 133.44-23.4L133.44-23.4ZM150.94 0L150.94-34.4 180.69-34.4 180.69-26.15 161.99-26.15 161.99-21.4 177.99-21.4 177.99-13.5 161.99-13.5 161.99-8.25 181.04-8.25 181.04 0 150.94 0ZM201.49-35Q208.09-35 212.34-32.33 216.59-29.65 216.69-24.4L216.69-24.4 216.69-23.8 206.34-23.8 206.34-24Q206.34-25.5 205.24-26.5 204.14-27.5 201.89-27.5L201.89-27.5Q199.69-27.5 198.51-26.85 197.34-26.2 197.34-25.25L197.34-25.25Q197.34-23.9 198.94-23.25 200.54-22.6 204.09-21.9L204.09-21.9Q208.24-21.05 210.91-20.13 213.59-19.2 215.59-17.1 217.59-15 217.64-11.4L217.64-11.4Q217.64-5.3 213.51-2.35 209.39 0.6 202.49 0.6L202.49 0.6Q194.44 0.6 189.96-2.1 185.49-4.8 185.49-11.65L185.49-11.65 195.94-11.65Q195.94-9.05 197.29-8.18 198.64-7.3 201.49-7.3L201.49-7.3Q203.59-7.3 204.96-7.75 206.34-8.2 206.34-9.6L206.34-9.6Q206.34-10.85 204.81-11.48 203.29-12.1 199.84-12.8L199.84-12.8Q195.64-13.7 192.89-14.68 190.14-15.65 188.09-17.9 186.04-20.15 186.04-24L186.04-24Q186.04-29.65 190.41-32.33 194.79-35 201.49-35L201.49-35ZM234.69 0L223.63 0 223.63-34.4 234.69-34.4 234.69 0ZM273.03-30.85L257.08-8.25 273.43-8.25 273.43 0 240.08 0 240.08-3.55 256.03-26.15 241.28-26.15 241.28-34.4 273.03-34.4 273.03-30.85ZM278.68 0L278.68-34.4 308.43-34.4 308.43-26.15 289.73-26.15 289.73-21.4 305.73-21.4 305.73-13.5 289.73-13.5 289.73-8.25 308.78-8.25 308.78 0 278.68 0ZM347.43-23.85Q347.43-20.7 345.73-18.15 344.03-15.6 340.78-14.4L340.78-14.4 348.43 0 336.03 0 329.93-12.55 325.83-12.55 325.83 0 314.78 0 314.78-34.4 335.83-34.4Q339.53-34.4 342.15-32.98 344.78-31.55 346.1-29.13 347.43-26.7 347.43-23.85L347.43-23.85ZM336.18-23.4Q336.18-24.75 335.28-25.65 334.38-26.55 333.08-26.55L333.08-26.55 325.83-26.55 325.83-20.2 333.08-20.2Q334.38-20.2 335.28-21.13 336.18-22.05 336.18-23.4L336.18-23.4Z" fill="#61777f" data-fill-palette-color="primary"></path></g></svg></g></svg></g><g transform="matrix(1,0,0,1,0,50.484649603805664)"><svg viewBox="0 0 232.20979200000002 21.11844794384839" height="21.11844794384839" width="232.20979200000002"><g transform="matrix(1,0,0,1,0,0)"><svg width="232.20979200000002" viewBox="4.199999809265137 -35.099998474121094 498.5999755859375 45.349998474121094" height="21.11844794384839" data-palette-color="#07029e"><path d="M4.2-34.5L9.2-34.5 9.2 0 4.2 0 4.2-34.5ZM8.8-20.5L24.95-20.5 24.95-16.35 8.8-16.35 8.8-20.5ZM24.4-34.5L29.45-34.5 29.45 0 24.4 0 24.4-34.5ZM47.65-25L47.65-25Q53.3-25 55.82-22.98 58.35-20.95 58.35-17L58.35-17Q58.4-13.7 56.92-11.9 55.45-10.1 52.15-10.1L52.15-10.1 38.05-10.1 38.05-13.55 50.9-13.55Q52.55-13.55 53.05-14.6 53.55-15.65 53.55-17L53.55-17Q53.5-19.25 52.22-20.2 50.95-21.15 47.85-21.15L47.85-21.15Q45.3-21.15 43.85-20.4 42.4-19.65 41.82-17.8 41.25-15.95 41.25-12.6L41.25-12.6Q41.25-8.85 41.97-6.88 42.7-4.9 44.32-4.15 45.95-3.4 48.65-3.4L48.65-3.4Q50.55-3.4 52.92-3.58 55.3-3.75 57.25-4L57.25-4 57.75-0.85Q56.55-0.35 54.85-0.03 53.15 0.3 51.35 0.45 49.55 0.6 48.05 0.6L48.05 0.6Q43.75 0.6 41.15-0.7 38.55-2 37.35-4.83 36.15-7.65 36.15-12.25L36.15-12.25Q36.15-17.05 37.35-19.85 38.55-22.65 41.1-23.83 43.65-25 47.65-25ZM64.5-35L69.3-35 69.25-6.95Q69.25-5.4 70.12-4.6 71-3.8 72.55-3.8L72.55-3.8 74.85-3.8 75.4-0.25Q74.9 0 74.02 0.15 73.15 0.3 72.22 0.38 71.3 0.45 70.65 0.45L70.65 0.45Q67.85 0.45 66.17-1.15 64.5-2.75 64.5-5.8L64.5-5.8 64.5-35ZM93.94-25L93.94-25Q98.44-25 100.39-21.7 102.34-18.4 102.34-12.05L102.34-12.05Q102.34-7.3 101.34-4.53 100.34-1.75 98.32-0.58 96.29 0.6 93.14 0.6L93.14 0.6Q90.69 0.6 88.37-0.08 86.04-0.75 83.89-2.15L83.89-2.15 84.19-4.85Q86.39-4.2 88.12-3.8 89.84-3.4 91.79-3.4L91.79-3.4Q93.84-3.4 95.07-4.1 96.29-4.8 96.84-6.7 97.39-8.6 97.39-12.05L97.39-12.05Q97.39-15.45 96.87-17.38 96.34-19.3 95.22-20.13 94.09-20.95 92.24-20.95L92.24-20.95Q90.34-20.95 88.49-20.08 86.64-19.2 84.24-17.35L84.24-17.35 83.74-20.35Q84.99-21.75 86.67-22.8 88.34-23.85 90.24-24.43 92.14-25 93.94-25ZM79.59-24.4L83.54-24.4 84.04-19.45 84.39-18.8 84.39-3.1 84.19-2.5Q84.34-1.1 84.39 0.25 84.44 1.6 84.39 3.1L84.39 3.1 84.39 9.95 79.59 9.95 79.59-24.4ZM108.99-24.4L113.74-24.4 113.74 0 108.99 0 108.99-24.4ZM110.24-34.85L112.49-34.85Q113.94-34.85 113.94-33.4L113.94-33.4 113.94-30.55Q113.94-29.1 112.49-29.1L112.49-29.1 110.24-29.1Q108.79-29.1 108.79-30.55L108.79-30.55 108.79-33.4Q108.79-34.85 110.24-34.85L110.24-34.85ZM136.69-25L136.69-25Q143.34-25 143.34-18.3L143.34-18.3 143.34 0 138.49 0 138.49-16.9Q138.49-19.2 137.74-20.08 136.99-20.95 135.19-20.95L135.19-20.95Q133.04-20.95 130.89-19.93 128.74-18.9 125.74-17.1L125.74-17.1 125.54-20.35Q128.34-22.6 131.14-23.8 133.94-25 136.69-25ZM121.44-24.4L125.44-24.4 125.89-19.7 126.24-19 126.24 0 121.44 0 121.44-24.4ZM160.59-25L160.59-25Q164.54-25 166.86-24.23 169.19-23.45 170.19-21.73 171.19-20 171.19-17.25L171.19-17.25Q171.19-14.6 170.19-12.88 169.19-11.15 166.84-10.33 164.49-9.5 160.54-9.5L160.54-9.5Q156.54-9.5 154.21-10.33 151.89-11.15 150.89-12.85 149.89-14.55 149.89-17.2L149.89-17.2Q149.89-20 150.89-21.73 151.89-23.45 154.24-24.23 156.59-25 160.59-25ZM160.54-21.55L160.54-21.55Q157.04-21.55 155.69-20.58 154.34-19.6 154.34-17.25L154.34-17.25Q154.34-14.95 155.69-13.95 157.04-12.95 160.54-12.95L160.54-12.95Q164.04-12.95 165.36-13.95 166.69-14.95 166.69-17.25L166.69-17.25Q166.69-19.6 165.36-20.58 164.04-21.55 160.54-21.55ZM165.74-24.4L174.04-24.4 173.79-21.9 167.49-21.35 165.74-24.4ZM153.59-11.05L153.59-11.05 156.24-10.7Q155.44-10 155.14-8.95 154.84-7.9 155.29-7.05 155.74-6.2 157.29-5.95L157.29-5.95 166.39-4.55Q169.89-4.1 171.29-2.43 172.69-0.75 172.69 2.35L172.69 2.35Q172.69 5.3 171.56 6.95 170.44 8.6 167.84 9.3 165.24 10 160.84 10L160.84 10Q157.39 10 155.09 9.63 152.79 9.25 151.41 8.38 150.04 7.5 149.44 6.1 148.84 4.7 148.84 2.65L148.84 2.65Q148.84 1.05 149.31-0.05 149.79-1.15 150.89-2 151.99-2.85 153.74-3.65L153.74-3.65 156.89-5.2 158.99-4.45 156.59-2.7Q155.54-1.95 154.86-1.23 154.19-0.5 153.84 0.28 153.49 1.05 153.49 2.15L153.49 2.15Q153.49 3.75 154.11 4.6 154.74 5.45 156.34 5.75 157.94 6.05 160.79 6.05L160.79 6.05Q163.64 6.05 165.19 5.73 166.74 5.4 167.36 4.58 167.99 3.75 167.99 2.2L167.99 2.2Q167.99 1 167.66 0.38 167.34-0.25 166.44-0.58 165.54-0.9 163.84-1.15L163.84-1.15 155.29-2.25Q153.64-2.45 152.69-3.28 151.74-4.1 151.36-5.23 150.99-6.35 151.16-7.48 151.34-8.6 151.96-9.6 152.59-10.6 153.59-11.05ZM201.88-34.9L201.88-34.9Q206.18-34.9 208.71-34.13 211.23-33.35 212.36-31.4 213.48-29.45 213.48-25.9L213.48-25.9Q213.48-22.2 212.11-20.25 210.73-18.3 207.63-18L207.63-18 207.63-17.8Q211.48-17.45 213.03-15.1 214.58-12.75 214.58-8.6L214.58-8.6Q214.58-5.05 213.46-3.1 212.33-1.15 209.88-0.38 207.43 0.4 203.43 0.4L203.43 0.4Q200.38 0.4 198.21 0.38 196.03 0.35 194.18 0.25 192.33 0.15 190.33 0L190.33 0 191.03-3.85Q192.13-3.8 195.28-3.75 198.43-3.7 202.63-3.7L202.63-3.7Q205.23-3.7 206.73-4.15 208.23-4.6 208.88-5.85 209.53-7.1 209.53-9.5L209.53-9.5Q209.53-12.1 208.86-13.48 208.18-14.85 206.63-15.43 205.08-16 202.33-16.05L202.33-16.05 190.98-16.05 190.98-19.7 202.28-19.7Q204.68-19.75 206.08-20.2 207.48-20.65 208.08-21.88 208.68-23.1 208.68-25.3L208.68-25.3Q208.68-27.55 208.03-28.75 207.38-29.95 205.83-30.38 204.28-30.8 201.63-30.8L201.63-30.8Q199.13-30.8 197.13-30.8 195.13-30.8 193.63-30.78 192.13-30.75 191.03-30.65L191.03-30.65 190.33-34.5Q192.13-34.7 193.76-34.77 195.38-34.85 197.31-34.88 199.23-34.9 201.88-34.9ZM190.33-34.5L195.23-34.5 195.23 0 190.33 0 190.33-34.5ZM238.08-24.4L243.28-24.4 233.68 1.15Q233.08 2.8 232.15 4.4 231.23 6 229.88 7.33 228.53 8.65 226.7 9.45 224.88 10.25 222.48 10.25L222.48 10.25 222.03 7.2Q225.03 6.25 226.65 4.7 228.28 3.15 229.23 0.9L229.23 0.9 230.48-2.1Q230.88-3.15 231.28-4.42 231.68-5.7 232.03-6.65L232.03-6.65 238.08-24.4ZM218.13-24.4L223.28-24.4 229.43-6.65Q229.68-5.9 229.9-5.13 230.13-4.35 230.28-3.55L230.28-3.55 231.48-3.55 229.93 0 228.53 0Q227.93 0 227.48-0.33 227.03-0.65 226.83-1.25L226.83-1.25 218.13-24.4ZM270.77-35.1L270.77-35.1Q273.02-35.1 274.62-35 276.22-34.9 277.57-34.68 278.92-34.45 280.37-34.05L280.37-34.05 279.87-30.3Q278.37-30.45 277.07-30.53 275.77-30.6 274.3-30.65 272.82-30.7 270.77-30.7L270.77-30.7Q267.57-30.7 265.72-29.45 263.87-28.2 263.1-25.28 262.32-22.35 262.32-17.25L262.32-17.25Q262.32-12.15 263.1-9.22 263.87-6.3 265.72-5.05 267.57-3.8 270.77-3.8L270.77-3.8Q274.02-3.8 276.25-3.93 278.47-4.05 280.57-4.35L280.57-4.35 281.07-0.6Q278.87 0.05 276.55 0.33 274.22 0.6 270.77 0.6L270.77 0.6Q265.77 0.6 262.75-1.13 259.72-2.85 258.37-6.75 257.02-10.65 257.02-17.25L257.02-17.25Q257.02-23.85 258.37-27.75 259.72-31.65 262.75-33.38 265.77-35.1 270.77-35.1ZM297.07-25L297.07-25Q301.37-25 303.95-23.75 306.52-22.5 307.65-19.68 308.77-16.85 308.77-12.2L308.77-12.2Q308.77-7.5 307.65-4.67 306.52-1.85 303.95-0.6 301.37 0.65 297.07 0.65L297.07 0.65Q292.82 0.65 290.25-0.6 287.67-1.85 286.52-4.67 285.37-7.5 285.37-12.2L285.37-12.2Q285.37-16.85 286.52-19.68 287.67-22.5 290.25-23.75 292.82-25 297.07-25ZM297.07-21.1L297.07-21.1Q294.57-21.1 293.12-20.3 291.67-19.5 291.07-17.57 290.47-15.65 290.47-12.2L290.47-12.2Q290.47-8.75 291.07-6.8 291.67-4.85 293.12-4.08 294.57-3.3 297.07-3.3L297.07-3.3Q299.57-3.3 301.05-4.08 302.52-4.85 303.12-6.8 303.72-8.75 303.72-12.2L303.72-12.2Q303.72-15.65 303.12-17.57 302.52-19.5 301.05-20.3 299.57-21.1 297.07-21.1ZM330.37-25L330.37-25Q337.02-25 337.02-18.3L337.02-18.3 337.02 0 332.17 0 332.17-16.9Q332.17-19.2 331.42-20.08 330.67-20.95 328.87-20.95L328.87-20.95Q326.72-20.95 324.57-19.93 322.42-18.9 319.42-17.1L319.42-17.1 319.22-20.35Q322.02-22.6 324.82-23.8 327.62-25 330.37-25ZM315.12-24.4L319.12-24.4 319.57-19.7 319.92-19 319.92 0 315.12 0 315.12-24.4ZM361.47-24.4L366.62-24.4 357.87-1.2Q357.62-0.65 357.19-0.33 356.77 0 356.17 0L356.17 0 351.87 0Q351.27 0 350.84-0.33 350.42-0.65 350.17-1.2L350.17-1.2 341.42-24.4 346.57-24.4 352.32-7.65Q352.72-6.6 353.04-5.5 353.37-4.4 353.67-3.35L353.67-3.35 354.32-3.35Q354.72-4.45 355.07-5.53 355.42-6.6 355.77-7.65L355.77-7.65 361.47-24.4ZM381.16-25L381.16-25Q386.81-25 389.34-22.98 391.86-20.95 391.86-17L391.86-17Q391.91-13.7 390.44-11.9 388.96-10.1 385.66-10.1L385.66-10.1 371.56-10.1 371.56-13.55 384.41-13.55Q386.06-13.55 386.56-14.6 387.06-15.65 387.06-17L387.06-17Q387.01-19.25 385.74-20.2 384.46-21.15 381.36-21.15L381.36-21.15Q378.81-21.15 377.36-20.4 375.91-19.65 375.34-17.8 374.76-15.95 374.76-12.6L374.76-12.6Q374.76-8.85 375.49-6.88 376.21-4.9 377.84-4.15 379.46-3.4 382.16-3.4L382.16-3.4Q384.06-3.4 386.44-3.58 388.81-3.75 390.76-4L390.76-4 391.26-0.85Q390.06-0.35 388.36-0.03 386.66 0.3 384.86 0.45 383.06 0.6 381.56 0.6L381.56 0.6Q377.26 0.6 374.66-0.7 372.06-2 370.86-4.83 369.66-7.65 369.66-12.25L369.66-12.25Q369.66-17.05 370.86-19.85 372.06-22.65 374.61-23.83 377.16-25 381.16-25ZM397.96-24.4L401.71-24.4 402.31-19.7 402.76-19 402.76 0 397.96 0 397.96-24.4ZM412.56-25L413.66-25 413.16-20.5 411.61-20.5Q409.56-20.5 407.44-19.7 405.31-18.9 402.26-17.4L402.26-17.4 401.91-20.35Q404.56-22.55 407.29-23.78 410.01-25 412.56-25L412.56-25ZM420.16-31.55L425.01-31.55 425.01-6.95Q425.01-5.25 425.73-4.53 426.46-3.8 428.21-3.8L428.21-3.8 431.81-3.8 432.36-0.25Q431.51 0 430.43 0.15 429.36 0.3 428.28 0.38 427.21 0.45 426.56 0.45L426.56 0.45Q423.46 0.45 421.81-1.25 420.16-2.95 420.16-6.15L420.16-6.15 420.16-31.55ZM420.56-24.4L432.61-24.4 432.61-20.8 415.76-20.8 415.76-24.15 420.56-24.4ZM437.76-24.4L442.51-24.4 442.51 0 437.76 0 437.76-24.4ZM439.01-34.85L441.26-34.85Q442.71-34.85 442.71-33.4L442.71-33.4 442.71-30.55Q442.71-29.1 441.26-29.1L441.26-29.1 439.01-29.1Q437.56-29.1 437.56-30.55L437.56-30.55 437.56-33.4Q437.56-34.85 439.01-34.85L439.01-34.85ZM465.45-25L465.45-25Q472.1-25 472.1-18.3L472.1-18.3 472.1 0 467.25 0 467.25-16.9Q467.25-19.2 466.5-20.08 465.75-20.95 463.95-20.95L463.95-20.95Q461.8-20.95 459.65-19.93 457.5-18.9 454.5-17.1L454.5-17.1 454.3-20.35Q457.1-22.6 459.9-23.8 462.7-25 465.45-25ZM450.2-24.4L454.2-24.4 454.65-19.7 455-19 455 0 450.2 0 450.2-24.4ZM489.35-25L489.35-25Q493.3-25 495.63-24.23 497.95-23.45 498.95-21.73 499.95-20 499.95-17.25L499.95-17.25Q499.95-14.6 498.95-12.88 497.95-11.15 495.6-10.33 493.25-9.5 489.3-9.5L489.3-9.5Q485.3-9.5 482.98-10.33 480.65-11.15 479.65-12.85 478.65-14.55 478.65-17.2L478.65-17.2Q478.65-20 479.65-21.73 480.65-23.45 483-24.23 485.35-25 489.35-25ZM489.3-21.55L489.3-21.55Q485.8-21.55 484.45-20.58 483.1-19.6 483.1-17.25L483.1-17.25Q483.1-14.95 484.45-13.95 485.8-12.95 489.3-12.95L489.3-12.95Q492.8-12.95 494.13-13.95 495.45-14.95 495.45-17.25L495.45-17.25Q495.45-19.6 494.13-20.58 492.8-21.55 489.3-21.55ZM494.5-24.4L502.8-24.4 502.55-21.9 496.25-21.35 494.5-24.4ZM482.35-11.05L482.35-11.05 485-10.7Q484.2-10 483.9-8.95 483.6-7.9 484.05-7.05 484.5-6.2 486.05-5.95L486.05-5.95 495.15-4.55Q498.65-4.1 500.05-2.43 501.45-0.75 501.45 2.35L501.45 2.35Q501.45 5.3 500.33 6.95 499.2 8.6 496.6 9.3 494 10 489.6 10L489.6 10Q486.15 10 483.85 9.63 481.55 9.25 480.18 8.38 478.8 7.5 478.2 6.1 477.6 4.7 477.6 2.65L477.6 2.65Q477.6 1.05 478.08-0.05 478.55-1.15 479.65-2 480.75-2.85 482.5-3.65L482.5-3.65 485.65-5.2 487.75-4.45 485.35-2.7Q484.3-1.95 483.63-1.23 482.95-0.5 482.6 0.28 482.25 1.05 482.25 2.15L482.25 2.15Q482.25 3.75 482.88 4.6 483.5 5.45 485.1 5.75 486.7 6.05 489.55 6.05L489.55 6.05Q492.4 6.05 493.95 5.73 495.5 5.4 496.13 4.58 496.75 3.75 496.75 2.2L496.75 2.2Q496.75 1 496.43 0.38 496.1-0.25 495.2-0.58 494.3-0.9 492.6-1.15L492.6-1.15 484.05-2.25Q482.4-2.45 481.45-3.28 480.5-4.1 480.13-5.23 479.75-6.35 479.93-7.48 480.1-8.6 480.73-9.6 481.35-10.6 482.35-11.05Z" opacity="1" transform="matrix(1,0,0,1,0,0)" fill="#07029e" class="undefined-text-1" data-fill-palette-color="secondary" id="text-1"></path></svg></g></svg></g></svg></g></svg></g></svg></g><defs></defs></svg><rect width="395.5199999999999" height="71.60309754765403" fill="none" stroke="none" visibility="hidden"></rect></g></svg></g></svg>